<svg xmlns="http://www.w3.org/2000/svg" viewBox="0 0 60 60"><defs><radialGradient id="biko-fur" cx=".3" cy=".19" r=".9"><stop stop-color="#fffdf4"/><stop offset=".5" stop-color="#f0e7d8"/><stop offset="1" stop-color="#c5ae94"/></radialGradient><linearGradient id="biko-horn" x1="0" y1="1" x2="1" y2="0"><stop stop-color="#62483c"/><stop offset="1" stop-color="#b99872"/></linearGradient></defs><ellipse cx="30" cy="56" rx="15" ry="2.5" fill="#a98b74" opacity=".2"/><path d="M19 18C9 10 15 1 18 1c-3 6 2 10 7 14M41 18C51 10 45 1 42 1c3 6-2 10-7 14" fill="url(#biko-horn)" stroke="#80604a" stroke-width=".6"/><path d="M18 18C8 11 0 18 7 25c3 3 6 4 10 2M42 18c10-7 18 0 11 7-3 3-6 4-10 2" fill="#e2c9b1" stroke="#baa18a" stroke-width=".6"/><path d="M14 22l-6-3 4 5m34-2 6-3-4 5" stroke="#c69488" stroke-width="2" stroke-linecap="round"/><path d="M16 20q1-12 14-11 13-1 14 11l-2 17q-1 10-12 10T18 37Z" fill="url(#biko-fur)" stroke="#bea58c" stroke-width=".6"/><path d="M23 12l1-5 5 4 5-4 2 5" fill="#fffdf5" stroke="#d6c3ac" stroke-width=".5"/><g class="eye"><ellipse cx="22" cy="26" rx="4" ry="3.4" fill="#b69b68"/><ellipse cx="38" cy="26" rx="4" ry="3.4" fill="#b69b68"/><rect x="19" y="25.3" width="6" height="1.5" rx=".7" fill="#3c302b"/><rect x="35" y="25.3" width="6" height="1.5" rx=".7" fill="#3c302b"/><circle cx="20.5" cy="24.5" r=".7" fill="#fff"/><circle cx="36.5" cy="24.5" r=".7" fill="#fff"/></g><ellipse cx="30" cy="37" rx="8" ry="5.7" fill="#e4d1bf"/><path d="M28 35q2-2 4 0l-2 2Z" fill="#8f7062"/><path d="M30 37v2m-5 1q5 3 10 0" stroke="#8f7062" stroke-width=".8" fill="none" stroke-linecap="round"/><path d="M25 42l2 9 3-3 3 3 2-9" fill="#e9decc" stroke="#cdbba4" stroke-width=".5"/><path d="M19 46q11 4 22 0l-3 8H22Z" fill="#6b1f2b"/><circle cx="30" cy="51" r="3" fill="#d7a884"/><text x="30" y="53" text-anchor="middle" fill="#6b1f2b" font-family="Georgia,serif" font-size="5" font-weight="bold">b</text><path d="M21 54l-5 3m23-3l5 3" stroke="#876b56" stroke-width="3" stroke-linecap="round"/></svg>